<svg xmlns="http://www.w3.org/2000/svg" width="64" height="64" viewBox="0 0 64 64" fill="none">
  <rect x="2" y="2" width="60" height="60" rx="14" fill="#f3ebe2" stroke="#d6c2ad"/>
  <path d="M32 13C22.61 13 15 20.43 15 29.6C15 42.2 30.3 52.88 31 53.36C31.61 53.78 32.39 53.78 33 53.36C33.7 52.88 49 42.2 49 29.6C49 20.43 41.39 13 32 13Z" fill="#7a4b2a"/>
  <circle cx="32" cy="29" r="7.5" fill="#f9f4ef"/>
  <path d="M18 46C22.5 44.2 25.2 43.6 28.2 44.7C31 45.8 33 48.7 36.1 49.2C39.2 49.7 42 48.1 46 44.8" stroke="#b98b66" stroke-width="2" stroke-linecap="round"/>
</svg>
